<svg width="500" height="500" viewBox="0 0 500 500" fill="none" xmlns="http://www.w3.org/2000/svg">
<path d="M192.982 298.373H179.87V321.421H148.108V298.373H100.627V274.754L150.144 202.352H179.871V274.347H192.983V298.373H192.982ZM148.108 274.347V260.502C148.108 257.896 148.202 254.382 148.393 249.955C148.582 245.531 148.731 243.209 148.841 242.992H147.945C146.099 247.173 144.008 251.083 141.674 254.72L128.48 274.347H148.108Z" fill="#F5DF60"/>
<path d="M287.373 262.049C287.373 283.116 283.843 298.549 276.786 308.35C269.728 318.15 258.922 323.049 244.373 323.049C230.147 323.049 219.424 317.933 212.203 307.697C204.981 297.464 201.371 282.246 201.371 262.048C201.371 240.873 204.9 225.346 211.959 215.463C219.016 205.582 229.822 200.641 244.373 200.641C258.544 200.641 269.253 205.786 276.501 216.074C283.749 226.365 287.373 241.688 287.373 262.049ZM233.377 262.049C233.377 275.515 234.218 284.772 235.902 289.821C237.584 294.87 240.408 297.395 244.372 297.395C248.389 297.395 251.225 294.789 252.882 289.576C254.538 284.364 255.366 275.189 255.366 262.049C255.366 248.856 254.524 239.611 252.842 234.318C251.158 229.024 248.334 226.378 244.372 226.378C240.408 226.378 237.584 228.931 235.902 234.033C234.218 239.137 233.377 248.475 233.377 262.049Z" fill="#F5DF60"/>
<path d="M388.442 298.373H375.331V321.421H343.568V298.373H296.087V274.754L345.604 202.352H375.331V274.347H388.442V298.373ZM343.568 274.347V260.502C343.568 257.896 343.662 254.382 343.853 249.955C344.042 245.531 344.191 243.209 344.301 242.992H343.405C341.559 247.173 339.467 251.083 337.134 254.72L323.941 274.347H343.568Z" fill="#F5DF60"/>
<path d="M52.903 228.771H101.04" stroke="black" stroke-width="2.1628" stroke-miterlimit="10" stroke-linecap="round" stroke-linejoin="round"/>
<path d="M112.594 228.771H122.87" stroke="black" stroke-width="2.1628" stroke-miterlimit="10" stroke-linecap="round" stroke-linejoin="round"/>
<path d="M44.186 215.223H130.361" stroke="black" stroke-width="2.1628" stroke-miterlimit="10" stroke-linecap="round" stroke-linejoin="round"/>
<path d="M37.093 215.223H30" stroke="black" stroke-width="2.1628" stroke-miterlimit="10" stroke-linecap="round" stroke-linejoin="round"/>
<path d="M44.186 202.352H72.796" stroke="black" stroke-width="2.1628" stroke-miterlimit="10" stroke-linecap="round" stroke-linejoin="round"/>
<path d="M80.456 202.352H140.541" stroke="black" stroke-width="2.1628" stroke-miterlimit="10" stroke-linecap="round" stroke-linejoin="round"/>
<path d="M393.162 336.259H444.674" stroke="black" stroke-width="2.1628" stroke-miterlimit="10" stroke-linecap="round" stroke-linejoin="round"/>
<path d="M453.052 336.259H460.503" stroke="black" stroke-width="2.1628" stroke-miterlimit="10" stroke-linecap="round" stroke-linejoin="round"/>
<path d="M403.449 322.71H470.956" stroke="black" stroke-width="2.1628" stroke-miterlimit="10" stroke-linecap="round" stroke-linejoin="round"/>
<path d="M398.305 322.71H393.162" stroke="black" stroke-width="2.1628" stroke-miterlimit="10" stroke-linecap="round" stroke-linejoin="round"/>
<path d="M393.162 309.839H424.194" stroke="black" stroke-width="2.1628" stroke-miterlimit="10" stroke-linecap="round" stroke-linejoin="round"/>
<path d="M429.748 309.839H453.052" stroke="black" stroke-width="2.1628" stroke-miterlimit="10" stroke-linecap="round" stroke-linejoin="round"/>
<path d="M199.147 297.918H186.035V320.966H154.273V297.918H106.792V274.299L156.309 201.897H186.036V273.892H199.148L199.147 297.918ZM154.272 273.892V260.047C154.272 257.441 154.366 253.927 154.557 249.5C154.746 245.076 154.895 242.754 155.005 242.537H154.109C152.263 246.718 150.172 250.628 147.838 254.265L134.644 273.892H154.272Z" stroke="black" stroke-width="3.2675" stroke-miterlimit="10"/>
<path d="M293.537 261.594C293.537 282.661 290.007 298.094 282.95 307.895C275.892 317.695 265.086 322.594 250.537 322.594C236.311 322.594 225.588 317.478 218.367 307.242C211.145 297.009 207.535 281.791 207.535 261.593C207.535 240.418 211.064 224.891 218.122 215.008C225.179 205.127 235.985 200.186 250.536 200.186C264.707 200.186 275.416 205.331 282.664 215.619C289.914 225.91 293.537 241.234 293.537 261.594ZM239.542 261.594C239.542 275.06 240.383 284.317 242.067 289.366C243.749 294.415 246.573 296.94 250.537 296.94C254.554 296.94 257.39 294.334 259.047 289.121C260.703 283.909 261.531 274.734 261.531 261.593C261.531 248.4 260.689 239.155 259.007 233.862C257.323 228.568 254.499 225.922 250.537 225.922C246.573 225.922 243.749 228.475 242.067 233.577C240.383 238.682 239.542 248.021 239.542 261.594Z" stroke="black" stroke-width="3.2675" stroke-miterlimit="10"/>
<path d="M394.607 297.918H381.495V320.966H349.733V297.918H302.252V274.299L351.769 201.897H381.496V273.892H394.608L394.607 297.918ZM349.733 273.892V260.047C349.733 257.441 349.827 253.927 350.018 249.5C350.207 245.076 350.356 242.754 350.466 242.537H349.57C347.724 246.718 345.632 250.628 343.299 254.265L330.106 273.892H349.733Z" stroke="black" stroke-width="3.2675" stroke-miterlimit="10"/>
<path d="M190.81 371.95V344.906H207.132V347.811H194.085V356.949H206.287V359.854H194.085V369.044H207.343V371.95H190.81ZM213.034 371.95V344.906H222.172C224.285 344.906 226.019 345.266 227.375 345.988C228.731 346.701 229.734 347.683 230.386 348.933C231.037 350.183 231.363 351.605 231.363 353.198C231.363 354.792 231.037 356.205 230.386 357.437C229.734 358.67 228.735 359.638 227.388 360.342C226.041 361.038 224.32 361.385 222.225 361.385H214.83V358.428H222.119C223.563 358.428 224.725 358.216 225.606 357.794C226.495 357.371 227.137 356.773 227.533 355.998C227.938 355.214 228.141 354.281 228.141 353.198C228.141 352.116 227.938 351.169 227.533 350.359C227.129 349.549 226.481 348.924 225.592 348.484C224.703 348.035 223.528 347.811 222.067 347.811H216.309V371.95H213.034ZM225.764 359.801L232.419 371.95H228.616L222.067 359.801H225.764ZM236.82 371.95V344.906H245.958C248.071 344.906 249.805 345.266 251.161 345.988C252.516 346.701 253.52 347.683 254.171 348.933C254.823 350.183 255.149 351.605 255.149 353.198C255.149 354.792 254.823 356.205 254.171 357.437C253.52 358.67 252.521 359.638 251.174 360.342C249.827 361.038 248.106 361.385 246.011 361.385H238.616V358.428H245.905C247.349 358.428 248.511 358.216 249.391 357.794C250.28 357.371 250.923 356.773 251.319 355.998C251.724 355.214 251.927 354.281 251.927 353.198C251.927 352.116 251.724 351.169 251.319 350.359C250.914 349.549 250.267 348.924 249.378 348.484C248.489 348.035 247.314 347.811 245.852 347.811H240.095V371.95H236.82ZM249.55 359.801L256.205 371.95H252.402L245.852 359.801H249.55ZM283.424 358.428C283.424 361.28 282.909 363.745 281.879 365.822C280.849 367.9 279.436 369.502 277.64 370.629C275.844 371.756 273.793 372.319 271.487 372.319C269.18 372.319 267.129 371.756 265.333 370.629C263.537 369.502 262.124 367.9 261.094 365.822C260.064 363.745 259.549 361.28 259.549 358.428C259.549 355.575 260.064 353.11 261.094 351.033C262.124 348.955 263.537 347.353 265.333 346.226C267.129 345.099 269.18 344.536 271.487 344.536C273.793 344.536 275.844 345.099 277.64 346.226C279.436 347.353 280.849 348.955 281.879 351.033C282.909 353.11 283.424 355.575 283.424 358.428ZM280.255 358.428C280.255 356.086 279.863 354.109 279.079 352.498C278.305 350.887 277.253 349.668 275.923 348.841C274.603 348.013 273.124 347.599 271.487 347.599C269.849 347.599 268.366 348.013 267.036 348.841C265.716 349.668 264.664 350.887 263.88 352.498C263.106 354.109 262.718 356.086 262.718 358.428C262.718 360.769 263.106 362.746 263.88 364.357C264.664 365.968 265.716 367.187 267.036 368.014C268.366 368.842 269.849 369.256 271.487 369.256C273.124 369.256 274.603 368.842 275.923 368.014C277.253 367.187 278.305 365.968 279.079 364.357C279.863 362.746 280.255 360.769 280.255 358.428ZM288.93 371.95V344.906H298.068C300.181 344.906 301.915 345.266 303.271 345.988C304.627 346.701 305.631 347.683 306.282 348.933C306.933 350.183 307.259 351.605 307.259 353.198C307.259 354.792 306.933 356.205 306.282 357.437C305.631 358.67 304.631 359.638 303.284 360.342C301.937 361.038 300.216 361.385 298.121 361.385H290.726V358.428H298.016C299.459 358.428 300.621 358.216 301.502 357.794C302.391 357.371 303.034 356.773 303.43 355.998C303.835 355.214 304.037 354.281 304.037 353.198C304.037 352.116 303.835 351.169 303.43 350.359C303.025 349.549 302.378 348.924 301.489 348.484C300.599 348.035 299.424 347.811 297.963 347.811H292.205V371.95H288.93ZM301.66 359.801L308.316 371.95H304.512L297.963 359.801H301.66Z" fill="black"/>
<path d="M415.642 225.835V214.796" stroke="black" stroke-width="2.1628" stroke-miterlimit="10" stroke-linecap="round" stroke-linejoin="round"/>
<path d="M407.936 229.027L400.131 221.221" stroke="black" stroke-width="2.1628" stroke-miterlimit="10" stroke-linecap="round" stroke-linejoin="round"/>
<path d="M404.745 236.733H393.706" stroke="black" stroke-width="2.1628" stroke-miterlimit="10" stroke-linecap="round" stroke-linejoin="round"/>
<path d="M407.936 244.438L400.131 252.244" stroke="black" stroke-width="2.1628" stroke-miterlimit="10" stroke-linecap="round" stroke-linejoin="round"/>
<path d="M415.642 247.63V258.669" stroke="black" stroke-width="2.1628" stroke-miterlimit="10" stroke-linecap="round" stroke-linejoin="round"/>
<path d="M423.348 244.438L431.154 252.244" stroke="black" stroke-width="2.1628" stroke-miterlimit="10" stroke-linecap="round" stroke-linejoin="round"/>
<path d="M426.54 236.733H437.579" stroke="black" stroke-width="2.1628" stroke-miterlimit="10" stroke-linecap="round" stroke-linejoin="round"/>
<path d="M423.348 229.027L431.154 221.221" stroke="black" stroke-width="2.1628" stroke-miterlimit="10" stroke-linecap="round" stroke-linejoin="round"/>
<path d="M69.414 280.801V272.822" stroke="black" stroke-width="2.1628" stroke-miterlimit="10" stroke-linecap="round" stroke-linejoin="round"/>
<path d="M63.844 283.109L58.202 277.467" stroke="black" stroke-width="2.1628" stroke-miterlimit="10" stroke-linecap="round" stroke-linejoin="round"/>
<path d="M61.537 288.679H53.558" stroke="black" stroke-width="2.1628" stroke-miterlimit="10" stroke-linecap="round" stroke-linejoin="round"/>
<path d="M63.844 294.249L58.202 299.891" stroke="black" stroke-width="2.1628" stroke-miterlimit="10" stroke-linecap="round" stroke-linejoin="round"/>
<path d="M69.414 296.556V304.535" stroke="black" stroke-width="2.1628" stroke-miterlimit="10" stroke-linecap="round" stroke-linejoin="round"/>
<path d="M74.984 294.249L80.626 299.891" stroke="black" stroke-width="2.1628" stroke-miterlimit="10" stroke-linecap="round" stroke-linejoin="round"/>
<path d="M77.291 288.679H85.271" stroke="black" stroke-width="2.1628" stroke-miterlimit="10" stroke-linecap="round" stroke-linejoin="round"/>
<path d="M74.984 283.109L80.626 277.467" stroke="black" stroke-width="2.1628" stroke-miterlimit="10" stroke-linecap="round" stroke-linejoin="round"/>
<path d="M285.336 115.989V108.009" stroke="black" stroke-width="2.1628" stroke-miterlimit="10" stroke-linecap="round" stroke-linejoin="round"/>
<path d="M279.766 118.296L274.124 112.654" stroke="black" stroke-width="2.1628" stroke-miterlimit="10" stroke-linecap="round" stroke-linejoin="round"/>
<path d="M277.459 123.866H269.48" stroke="black" stroke-width="2.1628" stroke-miterlimit="10" stroke-linecap="round" stroke-linejoin="round"/>
<path d="M279.766 129.436L274.124 135.078" stroke="black" stroke-width="2.1628" stroke-miterlimit="10" stroke-linecap="round" stroke-linejoin="round"/>
<path d="M285.336 131.743V139.722" stroke="black" stroke-width="2.1628" stroke-miterlimit="10" stroke-linecap="round" stroke-linejoin="round"/>
<path d="M290.906 129.436L296.548 135.078" stroke="black" stroke-width="2.1628" stroke-miterlimit="10" stroke-linecap="round" stroke-linejoin="round"/>
<path d="M293.213 123.866H301.192" stroke="black" stroke-width="2.1628" stroke-miterlimit="10" stroke-linecap="round" stroke-linejoin="round"/>
<path d="M290.906 118.296L296.548 112.654" stroke="black" stroke-width="2.1628" stroke-miterlimit="10" stroke-linecap="round" stroke-linejoin="round"/>
<path d="M382.788 337.629H109.027V380.727H382.788V337.629Z" stroke="black" stroke-width="2.4187" stroke-miterlimit="10" stroke-linecap="round" stroke-linejoin="round"/>
<path d="M152.23 397.73V396.709H159.359V397.73H156.37V406.214H155.219V397.73H152.23ZM162.082 401.926V406.214H160.987V396.709H162.082V400.199H162.175C162.342 399.831 162.593 399.539 162.927 399.322C163.264 399.102 163.713 398.993 164.273 398.993C164.759 398.993 165.184 399.09 165.549 399.285C165.915 399.477 166.198 399.772 166.399 400.171C166.603 400.567 166.705 401.072 166.705 401.685V406.214H165.61V401.759C165.61 401.193 165.463 400.755 165.169 400.445C164.878 400.133 164.474 399.976 163.958 399.976C163.599 399.976 163.277 400.052 162.992 400.204C162.711 400.356 162.488 400.577 162.324 400.868C162.163 401.158 162.082 401.511 162.082 401.926ZM171.698 406.363C171.011 406.363 170.419 406.211 169.92 405.908C169.425 405.602 169.043 405.175 168.774 404.627C168.508 404.076 168.375 403.436 168.375 402.706C168.375 401.975 168.508 401.332 168.774 400.775C169.043 400.215 169.418 399.778 169.897 399.466C170.38 399.15 170.943 398.993 171.587 398.993C171.958 398.993 172.325 399.054 172.687 399.178C173.049 399.302 173.378 399.503 173.675 399.782C173.972 400.057 174.209 400.422 174.385 400.877C174.562 401.332 174.65 401.892 174.65 402.557V403.021H169.155V402.074H173.536C173.536 401.672 173.456 401.313 173.295 400.998C173.137 400.682 172.911 400.433 172.617 400.25C172.326 400.068 171.983 399.976 171.587 399.976C171.15 399.976 170.773 400.085 170.454 400.301C170.139 400.515 169.896 400.793 169.726 401.137C169.555 401.48 169.47 401.848 169.47 402.241V402.873C169.47 403.411 169.563 403.867 169.749 404.242C169.937 404.613 170.199 404.896 170.533 405.091C170.867 405.283 171.256 405.379 171.698 405.379C171.986 405.379 172.246 405.339 172.478 405.258C172.713 405.175 172.916 405.051 173.086 404.887C173.256 404.72 173.388 404.513 173.48 404.265L174.539 404.562C174.427 404.921 174.24 405.237 173.977 405.509C173.714 405.778 173.389 405.989 173.002 406.14C172.616 406.289 172.181 406.363 171.698 406.363ZM179.992 406.214V399.085H181.05V400.162H181.125C181.255 399.809 181.49 399.523 181.83 399.303C182.171 399.084 182.554 398.974 182.981 398.974C183.062 398.974 183.162 398.976 183.283 398.979C183.404 398.982 183.495 398.986 183.557 398.993V400.106C183.52 400.097 183.434 400.083 183.301 400.065C183.171 400.043 183.034 400.032 182.888 400.032C182.542 400.032 182.232 400.105 181.96 400.25C181.691 400.393 181.477 400.591 181.32 400.844C181.165 401.095 181.088 401.381 181.088 401.703V406.214H179.992ZM187.627 406.363C186.94 406.363 186.348 406.211 185.85 405.908C185.354 405.602 184.972 405.175 184.703 404.627C184.437 404.076 184.304 403.436 184.304 402.706C184.304 401.975 184.437 401.332 184.703 400.775C184.972 400.215 185.347 399.778 185.826 399.466C186.309 399.15 186.872 398.993 187.516 398.993C187.887 398.993 188.254 399.054 188.616 399.178C188.978 399.302 189.307 399.503 189.604 399.782C189.901 400.057 190.138 400.422 190.314 400.877C190.491 401.332 190.579 401.892 190.579 402.557V403.021H185.084V402.074H189.465C189.465 401.672 189.385 401.313 189.224 400.998C189.066 400.682 188.84 400.433 188.546 400.25C188.255 400.068 187.912 399.976 187.516 399.976C187.079 399.976 186.702 400.085 186.383 400.301C186.068 400.515 185.825 400.793 185.655 401.137C185.484 401.48 185.399 401.848 185.399 402.241V402.873C185.399 403.411 185.492 403.867 185.678 404.242C185.867 404.613 186.128 404.896 186.462 405.091C186.796 405.283 187.185 405.379 187.627 405.379C187.915 405.379 188.175 405.339 188.407 405.258C188.642 405.175 188.845 405.051 189.015 404.887C189.185 404.72 189.317 404.513 189.409 404.265L190.468 404.562C190.356 404.921 190.169 405.237 189.906 405.509C189.643 405.778 189.318 405.989 188.931 406.14C188.545 406.289 188.11 406.363 187.627 406.363ZM197.109 408.888V405.119H197.017C196.936 405.249 196.822 405.413 196.673 405.611C196.525 405.806 196.313 405.981 196.037 406.136C195.762 406.287 195.395 406.363 194.937 406.363C194.343 406.363 193.819 406.213 193.364 405.913C192.909 405.61 192.553 405.183 192.296 404.632C192.04 404.078 191.911 403.423 191.911 402.668C191.911 401.92 192.04 401.27 192.296 400.719C192.553 400.168 192.911 399.743 193.368 399.443C193.826 399.143 194.356 398.993 194.956 398.993C195.42 398.993 195.787 399.07 196.056 399.225C196.328 399.376 196.535 399.549 196.678 399.744C196.823 399.936 196.936 400.094 197.017 400.218H197.147V399.085H198.205V408.888H197.109ZM195.086 405.379C195.525 405.379 195.896 405.265 196.2 405.036C196.503 404.803 196.733 404.483 196.891 404.075C197.049 403.663 197.128 403.188 197.128 402.65C197.128 402.118 197.051 401.652 196.896 401.253C196.741 400.851 196.512 400.538 196.209 400.315C195.906 400.089 195.531 399.976 195.086 399.976C194.622 399.976 194.235 400.096 193.925 400.334C193.619 400.569 193.389 400.889 193.234 401.295C193.082 401.697 193.006 402.149 193.006 402.65C193.006 403.157 193.084 403.618 193.239 404.033C193.396 404.445 193.628 404.773 193.935 405.017C194.244 405.258 194.628 405.379 195.086 405.379ZM204.703 403.3V399.085H205.798V406.214H204.703V405.008H204.628C204.461 405.37 204.201 405.678 203.849 405.931C203.496 406.182 203.05 406.307 202.512 406.307C202.066 406.307 201.67 406.21 201.324 406.015C200.977 405.817 200.705 405.52 200.507 405.124C200.309 404.725 200.21 404.222 200.21 403.615V399.085H201.305V403.541C201.305 404.061 201.451 404.475 201.741 404.785C202.035 405.094 202.41 405.249 202.865 405.249C203.137 405.249 203.414 405.179 203.695 405.04C203.98 404.901 204.218 404.687 204.41 404.4C204.605 404.112 204.703 403.745 204.703 403.3ZM210.793 406.363C210.106 406.363 209.514 406.211 209.016 405.908C208.521 405.602 208.138 405.175 207.869 404.627C207.603 404.076 207.47 403.436 207.47 402.706C207.47 401.975 207.603 401.332 207.869 400.775C208.138 400.215 208.513 399.778 208.992 399.466C209.475 399.15 210.038 398.993 210.682 398.993C211.053 398.993 211.42 399.054 211.782 399.178C212.144 399.302 212.473 399.503 212.77 399.782C213.067 400.057 213.304 400.422 213.481 400.877C213.657 401.332 213.745 401.892 213.745 402.557V403.021H208.25V402.074H212.631C212.631 401.672 212.551 401.313 212.39 400.998C212.232 400.682 212.006 400.433 211.712 400.25C211.421 400.068 211.078 399.976 210.682 399.976C210.246 399.976 209.868 400.085 209.549 400.301C209.234 400.515 208.991 400.793 208.821 401.137C208.65 401.48 208.565 401.848 208.565 402.241V402.873C208.565 403.411 208.658 403.867 208.844 404.242C209.033 404.613 209.294 404.896 209.628 405.091C209.962 405.283 210.351 405.379 210.793 405.379C211.081 405.379 211.341 405.339 211.573 405.258C211.808 405.175 212.011 405.051 212.181 404.887C212.351 404.72 212.483 404.513 212.576 404.265L213.634 404.562C213.522 404.921 213.335 405.237 213.072 405.509C212.809 405.778 212.484 405.989 212.097 406.14C211.711 406.289 211.276 406.363 210.793 406.363ZM220.461 400.682L219.477 400.96C219.415 400.796 219.324 400.637 219.203 400.482C219.086 400.325 218.925 400.195 218.721 400.093C218.516 399.99 218.255 399.939 217.936 399.939C217.5 399.939 217.136 400.04 216.846 400.241C216.558 400.439 216.414 400.691 216.414 400.998C216.414 401.27 216.513 401.485 216.711 401.643C216.909 401.801 217.218 401.932 217.639 402.037L218.697 402.297C219.335 402.452 219.81 402.689 220.122 403.007C220.435 403.323 220.591 403.73 220.591 404.228C220.591 404.636 220.474 405.002 220.238 405.323C220.006 405.645 219.681 405.899 219.264 406.084C218.846 406.27 218.36 406.363 217.806 406.363C217.079 406.363 216.477 406.205 216.001 405.89C215.524 405.574 215.223 405.113 215.096 404.506L216.135 404.247C216.234 404.63 216.422 404.918 216.697 405.11C216.975 405.302 217.339 405.398 217.788 405.398C218.298 405.398 218.704 405.289 219.004 405.073C219.307 404.853 219.459 404.59 219.459 404.284C219.459 404.036 219.372 403.829 219.199 403.662C219.025 403.492 218.759 403.365 218.4 403.281L217.212 403.003C216.559 402.848 216.08 402.608 215.773 402.283C215.47 401.955 215.319 401.545 215.319 401.053C215.319 400.651 215.431 400.295 215.657 399.986C215.886 399.676 216.197 399.433 216.59 399.257C216.986 399.081 217.435 398.993 217.936 398.993C218.642 398.993 219.196 399.147 219.598 399.457C220.003 399.766 220.291 400.175 220.461 400.682ZM225.34 399.085V400.014H221.646V399.085H225.34ZM222.723 397.377H223.818V404.172C223.818 404.482 223.863 404.714 223.953 404.868C224.045 405.02 224.163 405.122 224.305 405.175C224.451 405.224 224.604 405.249 224.765 405.249C224.885 405.249 224.985 405.243 225.062 405.23C225.139 405.215 225.201 405.203 225.248 405.193L225.47 406.177C225.396 406.205 225.292 406.233 225.159 406.261C225.026 406.292 224.858 406.307 224.653 406.307C224.344 406.307 224.041 406.241 223.744 406.108C223.45 405.975 223.205 405.772 223.01 405.5C222.819 405.227 222.723 404.884 222.723 404.469V397.377ZM229.9 406.363C229.214 406.363 228.621 406.211 228.123 405.908C227.628 405.602 227.246 405.175 226.976 404.627C226.71 404.076 226.577 403.436 226.577 402.706C226.577 401.975 226.71 401.332 226.976 400.775C227.246 400.215 227.62 399.778 228.1 399.466C228.582 399.15 229.145 398.993 229.789 398.993C230.16 398.993 230.527 399.054 230.889 399.178C231.251 399.302 231.581 399.503 231.878 399.782C232.175 400.057 232.411 400.422 232.588 400.877C232.764 401.332 232.852 401.892 232.852 402.557V403.021H227.357V402.074H231.738C231.738 401.672 231.658 401.313 231.497 400.998C231.339 400.682 231.113 400.433 230.819 400.25C230.529 400.068 230.185 399.976 229.789 399.976C229.353 399.976 228.975 400.085 228.657 400.301C228.341 400.515 228.098 400.793 227.928 401.137C227.758 401.48 227.673 401.848 227.673 402.241V402.873C227.673 403.411 227.765 403.867 227.951 404.242C228.14 404.613 228.401 404.896 228.735 405.091C229.07 405.283 229.458 405.379 229.9 405.379C230.188 405.379 230.448 405.339 230.68 405.258C230.915 405.175 231.118 405.051 231.288 404.887C231.458 404.72 231.59 404.513 231.683 404.265L232.741 404.562C232.63 404.921 232.442 405.237 232.179 405.509C231.916 405.778 231.591 405.989 231.205 406.14C230.818 406.289 230.383 406.363 229.9 406.363ZM237.211 406.363C236.616 406.363 236.092 406.213 235.637 405.913C235.182 405.61 234.826 405.183 234.57 404.632C234.313 404.078 234.184 403.423 234.184 402.668C234.184 401.92 234.313 401.27 234.57 400.719C234.826 400.168 235.184 399.743 235.642 399.443C236.1 399.143 236.629 398.993 237.229 398.993C237.693 398.993 238.06 399.07 238.329 399.225C238.601 399.376 238.809 399.549 238.951 399.744C239.096 399.936 239.209 400.094 239.29 400.218H239.383V396.709H240.478V406.214H239.42V405.119H239.29C239.209 405.249 239.095 405.413 238.946 405.611C238.798 405.806 238.586 405.981 238.311 406.136C238.035 406.287 237.668 406.363 237.211 406.363ZM237.359 405.379C237.798 405.379 238.17 405.265 238.473 405.036C238.776 404.803 239.007 404.483 239.165 404.075C239.322 403.663 239.401 403.188 239.401 402.65C239.401 402.118 239.324 401.652 239.169 401.253C239.014 400.851 238.786 400.538 238.482 400.315C238.179 400.089 237.805 399.976 237.359 399.976C236.895 399.976 236.508 400.096 236.199 400.334C235.892 400.569 235.662 400.889 235.507 401.295C235.356 401.697 235.28 402.149 235.28 402.65C235.28 403.157 235.357 403.618 235.512 404.033C235.67 404.445 235.902 404.773 236.208 405.017C236.517 405.258 236.901 405.379 237.359 405.379ZM246.312 408.888V399.085H247.37V400.218H247.5C247.581 400.094 247.692 399.936 247.835 399.744C247.98 399.549 248.187 399.376 248.457 399.225C248.729 399.07 249.097 398.993 249.561 398.993C250.161 398.993 250.691 399.143 251.148 399.443C251.606 399.743 251.964 400.168 252.221 400.719C252.477 401.27 252.606 401.92 252.606 402.668C252.606 403.423 252.477 404.078 252.221 404.632C251.964 405.183 251.608 405.61 251.153 405.913C250.698 406.213 250.174 406.363 249.58 406.363C249.122 406.363 248.755 406.287 248.48 406.136C248.204 405.981 247.992 405.806 247.844 405.611C247.695 405.413 247.581 405.249 247.5 405.119H247.408V408.888H246.312ZM247.389 402.65C247.389 403.188 247.468 403.663 247.626 404.075C247.784 404.483 248.014 404.803 248.317 405.036C248.62 405.265 248.992 405.379 249.431 405.379C249.889 405.379 250.271 405.258 250.578 405.017C250.887 404.773 251.119 404.445 251.274 404.033C251.432 403.618 251.511 403.157 251.511 402.65C251.511 402.149 251.433 401.697 251.278 401.295C251.127 400.889 250.896 400.569 250.587 400.334C250.281 400.096 249.895 399.976 249.431 399.976C248.986 399.976 248.611 400.089 248.308 400.315C248.005 400.538 247.776 400.851 247.621 401.253C247.466 401.652 247.389 402.118 247.389 402.65ZM256.375 406.382C255.923 406.382 255.513 406.296 255.145 406.126C254.776 405.953 254.484 405.704 254.267 405.379C254.051 405.051 253.943 404.655 253.943 404.191C253.943 403.782 254.023 403.451 254.184 403.198C254.345 402.941 254.56 402.74 254.829 402.594C255.098 402.449 255.395 402.34 255.72 402.269C256.048 402.195 256.378 402.136 256.709 402.093C257.142 402.037 257.493 401.995 257.762 401.968C258.035 401.937 258.233 401.886 258.356 401.814C258.483 401.743 258.547 401.62 258.547 401.443V401.406C258.547 400.948 258.421 400.592 258.171 400.339C257.923 400.085 257.547 399.958 257.043 399.958C256.52 399.958 256.11 400.072 255.813 400.301C255.516 400.53 255.307 400.775 255.186 401.035L254.147 400.663C254.332 400.23 254.58 399.893 254.889 399.652C255.202 399.407 255.542 399.237 255.91 399.141C256.282 399.042 256.647 398.993 257.006 398.993C257.235 398.993 257.498 399.02 257.795 399.076C258.095 399.129 258.384 399.239 258.663 399.406C258.944 399.573 259.178 399.825 259.364 400.162C259.549 400.499 259.642 400.951 259.642 401.517V406.214H258.547V405.249H258.491C258.417 405.404 258.293 405.569 258.12 405.746C257.946 405.922 257.716 406.072 257.428 406.196C257.14 406.32 256.789 406.382 256.375 406.382ZM256.542 405.398C256.975 405.398 257.34 405.312 257.637 405.142C257.937 404.972 258.163 404.752 258.315 404.483C258.469 404.214 258.547 403.931 258.547 403.634V402.631C258.5 402.687 258.398 402.738 258.24 402.785C258.086 402.828 257.906 402.866 257.702 402.901C257.501 402.931 257.304 402.959 257.113 402.984C256.924 403.006 256.771 403.024 256.653 403.04C256.368 403.077 256.102 403.137 255.855 403.221C255.61 403.301 255.412 403.423 255.261 403.587C255.112 403.748 255.038 403.968 255.038 404.247C255.038 404.627 255.179 404.915 255.46 405.11C255.745 405.302 256.105 405.398 256.542 405.398ZM264.519 409.036C263.99 409.036 263.535 408.968 263.154 408.832C262.774 408.699 262.457 408.523 262.203 408.303C261.952 408.086 261.753 407.854 261.604 407.607L262.477 406.994C262.576 407.124 262.701 407.273 262.853 407.44C263.004 407.61 263.212 407.757 263.475 407.881C263.741 408.008 264.089 408.071 264.519 408.071C265.095 408.071 265.569 407.932 265.944 407.653C266.318 407.375 266.505 406.938 266.505 406.344V404.896H266.413C266.332 405.026 266.218 405.187 266.069 405.379C265.924 405.568 265.713 405.736 265.438 405.885C265.166 406.03 264.797 406.103 264.333 406.103C263.758 406.103 263.241 405.967 262.783 405.695C262.328 405.422 261.968 405.026 261.702 404.506C261.439 403.987 261.307 403.355 261.307 402.613C261.307 401.883 261.436 401.247 261.692 400.705C261.949 400.161 262.307 399.74 262.765 399.443C263.223 399.143 263.752 398.993 264.352 398.993C264.816 398.993 265.184 399.07 265.457 399.225C265.732 399.376 265.942 399.549 266.088 399.744C266.236 399.936 266.351 400.094 266.431 400.218H266.543V399.085H267.601V406.419C267.601 407.031 267.462 407.529 267.183 407.913C266.908 408.3 266.536 408.583 266.069 408.763C265.605 408.945 265.088 409.036 264.519 409.036ZM264.482 405.119C264.921 405.119 265.293 405.019 265.596 404.817C265.899 404.616 266.13 404.327 266.287 403.949C266.445 403.572 266.524 403.12 266.524 402.594C266.524 402.081 266.447 401.627 266.292 401.234C266.137 400.841 265.908 400.533 265.605 400.311C265.302 400.088 264.927 399.976 264.482 399.976C264.018 399.976 263.631 400.094 263.322 400.329C263.015 400.564 262.785 400.88 262.63 401.276C262.478 401.672 262.403 402.112 262.403 402.594C262.403 403.089 262.48 403.527 262.635 403.908C262.792 404.285 263.024 404.582 263.331 404.799C263.64 405.012 264.024 405.119 264.482 405.119ZM272.595 406.363C271.908 406.363 271.315 406.211 270.817 405.908C270.322 405.602 269.94 405.175 269.671 404.627C269.405 404.076 269.272 403.436 269.272 402.706C269.272 401.975 269.405 401.332 269.671 400.775C269.94 400.215 270.314 399.778 270.794 399.466C271.277 399.15 271.84 398.993 272.484 398.993C272.855 398.993 273.222 399.054 273.584 399.178C273.946 399.302 274.275 399.503 274.572 399.782C274.869 400.057 275.106 400.422 275.282 400.877C275.459 401.332 275.547 401.892 275.547 402.557V403.021H270.051V402.074H274.433C274.433 401.672 274.352 401.313 274.192 400.998C274.034 400.682 273.808 400.433 273.514 400.25C273.223 400.068 272.88 399.976 272.484 399.976C272.047 399.976 271.67 400.085 271.351 400.301C271.035 400.515 270.793 400.793 270.622 401.137C270.452 401.48 270.367 401.848 270.367 402.241V402.873C270.367 403.411 270.46 403.867 270.646 404.242C270.834 404.613 271.096 404.896 271.43 405.091C271.764 405.283 272.152 405.379 272.595 405.379C272.883 405.379 273.143 405.339 273.375 405.258C273.61 405.175 273.813 405.051 273.983 404.887C274.153 404.72 274.284 404.513 274.377 404.265L275.435 404.562C275.324 404.921 275.137 405.237 274.874 405.509C274.611 405.778 274.286 405.989 273.899 406.14C273.512 406.289 273.078 406.363 272.595 406.363ZM283.581 406.363C282.987 406.363 282.462 406.213 282.008 405.913C281.553 405.61 281.197 405.183 280.94 404.632C280.683 404.078 280.555 403.423 280.555 402.668C280.555 401.92 280.683 401.27 280.94 400.719C281.197 400.168 281.554 399.743 282.012 399.443C282.47 399.143 282.999 398.993 283.6 398.993C284.064 398.993 284.43 399.07 284.7 399.225C284.972 399.376 285.179 399.549 285.321 399.744C285.467 399.936 285.58 400.094 285.66 400.218H285.753V396.709H286.848V406.214H285.79V405.119H285.66C285.58 405.249 285.465 405.413 285.317 405.611C285.168 405.806 284.956 405.981 284.681 406.136C284.406 406.287 284.039 406.363 283.581 406.363ZM283.729 405.379C284.169 405.379 284.54 405.265 284.843 405.036C285.147 404.803 285.377 404.483 285.535 404.075C285.693 403.663 285.772 403.188 285.772 402.65C285.772 402.118 285.694 401.652 285.54 401.253C285.385 400.851 285.156 400.538 284.853 400.315C284.549 400.089 284.175 399.976 283.729 399.976C283.265 399.976 282.879 400.096 282.569 400.334C282.263 400.569 282.032 400.889 281.878 401.295C281.726 401.697 281.65 402.149 281.65 402.65C281.65 403.157 281.728 403.618 281.882 404.033C282.04 404.445 282.272 404.773 282.578 405.017C282.888 405.258 283.272 405.379 283.729 405.379ZM291.903 406.363C291.259 406.363 290.695 406.21 290.209 405.903C289.726 405.597 289.349 405.169 289.076 404.618C288.807 404.067 288.673 403.423 288.673 402.687C288.673 401.944 288.807 401.296 289.076 400.742C289.349 400.188 289.726 399.758 290.209 399.452C290.695 399.146 291.259 398.993 291.903 398.993C292.546 398.993 293.11 399.146 293.592 399.452C294.078 399.758 294.456 400.188 294.725 400.742C294.997 401.296 295.133 401.944 295.133 402.687C295.133 403.423 294.997 404.067 294.725 404.618C294.456 405.169 294.078 405.597 293.592 405.903C293.11 406.21 292.546 406.363 291.903 406.363ZM291.903 405.379C292.392 405.379 292.794 405.254 293.11 405.003C293.425 404.752 293.659 404.423 293.81 404.014C293.962 403.606 294.038 403.164 294.038 402.687C294.038 402.211 293.962 401.767 293.81 401.355C293.659 400.943 293.425 400.611 293.11 400.357C292.794 400.103 292.392 399.976 291.903 399.976C291.414 399.976 291.012 400.103 290.696 400.357C290.381 400.611 290.147 400.943 289.995 401.355C289.844 401.767 289.768 402.211 289.768 402.687C289.768 403.164 289.844 403.606 289.995 404.014C290.147 404.423 290.381 404.752 290.696 405.003C291.012 405.254 291.414 405.379 291.903 405.379ZM299.794 406.363C299.107 406.363 298.515 406.211 298.017 405.908C297.522 405.602 297.139 405.175 296.87 404.627C296.604 404.076 296.471 403.436 296.471 402.706C296.471 401.975 296.604 401.332 296.87 400.775C297.139 400.215 297.514 399.778 297.993 399.466C298.476 399.15 299.039 398.993 299.683 398.993C300.054 398.993 300.421 399.054 300.783 399.178C301.145 399.302 301.474 399.503 301.772 399.782C302.069 400.057 302.305 400.422 302.482 400.877C302.658 401.332 302.746 401.892 302.746 402.557V403.021H297.251V402.074H301.632C301.632 401.672 301.552 401.313 301.391 400.998C301.233 400.682 301.007 400.433 300.713 400.25C300.422 400.068 300.079 399.976 299.683 399.976C299.247 399.976 298.869 400.085 298.55 400.301C298.235 400.515 297.992 400.793 297.822 401.137C297.652 401.48 297.566 401.848 297.566 402.241V402.873C297.566 403.411 297.659 403.867 297.845 404.242C298.034 404.613 298.295 404.896 298.629 405.091C298.964 405.283 299.352 405.379 299.794 405.379C300.082 405.379 300.342 405.339 300.574 405.258C300.809 405.175 301.012 405.051 301.182 404.887C301.352 404.72 301.484 404.513 301.577 404.265L302.635 404.562C302.523 404.921 302.336 405.237 302.073 405.509C301.81 405.778 301.485 405.989 301.099 406.14C300.712 406.289 300.277 406.363 299.794 406.363ZM309.462 400.682L308.478 400.96C308.416 400.796 308.325 400.637 308.204 400.482C308.087 400.325 307.926 400.195 307.722 400.093C307.517 399.99 307.256 399.939 306.937 399.939C306.501 399.939 306.137 400.04 305.847 400.241C305.559 400.439 305.415 400.691 305.415 400.998C305.415 401.27 305.514 401.485 305.712 401.643C305.91 401.801 306.219 401.932 306.64 402.037L307.699 402.297C308.336 402.452 308.811 402.689 309.123 403.007C309.436 403.323 309.592 403.73 309.592 404.228C309.592 404.636 309.475 405.002 309.239 405.323C309.007 405.645 308.682 405.899 308.265 406.084C307.847 406.27 307.361 406.363 306.807 406.363C306.08 406.363 305.478 406.205 305.002 405.89C304.525 405.574 304.224 405.113 304.097 404.506L305.136 404.247C305.236 404.63 305.423 404.918 305.698 405.11C305.977 405.302 306.34 405.398 306.789 405.398C307.299 405.398 307.705 405.289 308.005 405.073C308.308 404.853 308.46 404.59 308.46 404.284C308.46 404.036 308.373 403.829 308.2 403.662C308.026 403.492 307.76 403.365 307.401 403.281L306.213 403.003C305.56 402.848 305.081 402.608 304.774 402.283C304.471 401.955 304.32 401.545 304.32 401.053C304.32 400.651 304.433 400.295 304.658 399.986C304.887 399.676 305.198 399.433 305.591 399.257C305.987 399.081 306.436 398.993 306.937 398.993C307.643 398.993 308.197 399.147 308.599 399.457C309.004 399.766 309.292 400.175 309.462 400.682ZM316.012 401.926V406.214H314.917V399.085H315.975V400.199H316.068C316.235 399.837 316.489 399.546 316.829 399.327C317.17 399.104 317.609 398.993 318.147 398.993C318.63 398.993 319.052 399.092 319.414 399.29C319.776 399.485 320.058 399.782 320.259 400.181C320.46 400.577 320.561 401.078 320.561 401.685V406.214H319.465V401.759C319.465 401.199 319.32 400.762 319.029 400.45C318.738 400.134 318.339 399.976 317.832 399.976C317.482 399.976 317.17 400.052 316.894 400.204C316.622 400.356 316.407 400.577 316.249 400.868C316.091 401.158 316.012 401.511 316.012 401.926ZM325.459 406.363C324.815 406.363 324.25 406.21 323.764 405.903C323.282 405.597 322.904 405.169 322.632 404.618C322.363 404.067 322.228 403.423 322.228 402.687C322.228 401.944 322.363 401.296 322.632 400.742C322.904 400.188 323.282 399.758 323.764 399.452C324.25 399.146 324.815 398.993 325.459 398.993C326.102 398.993 326.665 399.146 327.148 399.452C327.634 399.758 328.011 400.188 328.28 400.742C328.553 401.296 328.689 401.944 328.689 402.687C328.689 403.423 328.553 404.067 328.28 404.618C328.011 405.169 327.634 405.597 327.148 405.903C326.665 406.21 326.102 406.363 325.459 406.363ZM325.459 405.379C325.947 405.379 326.35 405.254 326.665 405.003C326.981 404.752 327.215 404.423 327.366 404.014C327.518 403.606 327.594 403.164 327.594 402.687C327.594 402.211 327.518 401.767 327.366 401.355C327.215 400.943 326.981 400.611 326.665 400.357C326.35 400.103 325.947 399.976 325.459 399.976C324.97 399.976 324.567 400.103 324.252 400.357C323.936 400.611 323.703 400.943 323.551 401.355C323.399 401.767 323.324 402.211 323.324 402.687C323.324 403.164 323.399 403.606 323.551 404.014C323.703 404.423 323.936 404.752 324.252 405.003C324.567 405.254 324.97 405.379 325.459 405.379ZM333.461 399.085V400.014H329.767V399.085H333.461ZM330.844 397.377H331.939V404.172C331.939 404.482 331.984 404.714 332.074 404.868C332.166 405.02 332.284 405.122 332.426 405.175C332.572 405.224 332.725 405.249 332.886 405.249C333.007 405.249 333.106 405.243 333.183 405.23C333.26 405.215 333.322 405.203 333.369 405.193L333.591 406.177C333.517 406.205 333.413 406.233 333.28 406.261C333.147 406.292 332.979 406.307 332.774 406.307C332.465 406.307 332.162 406.241 331.865 406.108C331.571 405.975 331.326 405.772 331.131 405.5C330.94 405.227 330.844 404.884 330.844 404.469V397.377ZM341.774 406.363C341.087 406.363 340.495 406.211 339.996 405.908C339.501 405.602 339.119 405.175 338.85 404.627C338.584 404.076 338.451 403.436 338.451 402.706C338.451 401.975 338.584 401.332 338.85 400.775C339.119 400.215 339.494 399.778 339.973 399.466C340.456 399.15 341.019 398.993 341.663 398.993C342.034 398.993 342.401 399.054 342.763 399.178C343.125 399.302 343.454 399.503 343.751 399.782C344.048 400.057 344.285 400.422 344.461 400.877C344.638 401.332 344.726 401.892 344.726 402.557V403.021H339.231V402.074H343.612C343.612 401.672 343.532 401.313 343.371 400.998C343.213 400.682 342.987 400.433 342.693 400.25C342.402 400.068 342.059 399.976 341.663 399.976C341.226 399.976 340.849 400.085 340.53 400.301C340.215 400.515 339.972 400.793 339.801 401.137C339.631 401.48 339.546 401.848 339.546 402.241V402.873C339.546 403.411 339.639 403.867 339.825 404.242C340.013 404.613 340.275 404.896 340.609 405.091C340.943 405.283 341.332 405.379 341.774 405.379C342.062 405.379 342.322 405.339 342.554 405.258C342.789 405.175 342.992 405.051 343.162 404.887C343.332 404.72 343.463 404.513 343.556 404.265L344.615 404.562C344.503 404.921 344.316 405.237 344.053 405.509C343.79 405.778 343.465 405.989 343.078 406.14C342.691 406.289 342.257 406.363 341.774 406.363ZM347.018 399.085L348.726 402L350.434 399.085H351.696L349.394 402.65L351.696 406.214H350.434L348.726 403.448L347.018 406.214H345.755L348.02 402.65L345.755 399.085H347.018ZM353.259 406.214V399.085H354.354V406.214H353.259ZM353.816 397.897C353.602 397.897 353.418 397.824 353.264 397.679C353.112 397.534 353.036 397.359 353.036 397.155C353.036 396.95 353.112 396.776 353.264 396.63C353.418 396.485 353.602 396.412 353.816 396.412C354.029 396.412 354.212 396.485 354.364 396.63C354.518 396.776 354.596 396.95 354.596 397.155C354.596 397.359 354.518 397.534 354.364 397.679C354.212 397.824 354.029 397.897 353.816 397.897ZM361.41 400.682L360.426 400.96C360.365 400.796 360.273 400.637 360.153 400.482C360.035 400.325 359.874 400.195 359.67 400.093C359.466 399.99 359.204 399.939 358.885 399.939C358.449 399.939 358.086 400.04 357.795 400.241C357.507 400.439 357.363 400.691 357.363 400.998C357.363 401.27 357.462 401.485 357.66 401.643C357.858 401.801 358.168 401.932 358.588 402.037L359.647 402.297C360.284 402.452 360.759 402.689 361.072 403.007C361.384 403.323 361.54 403.73 361.54 404.228C361.54 404.636 361.423 405.002 361.188 405.323C360.955 405.645 360.631 405.899 360.213 406.084C359.795 406.27 359.309 406.363 358.756 406.363C358.028 406.363 357.427 406.205 356.95 405.89C356.474 405.574 356.172 405.113 356.045 404.506L357.085 404.247C357.184 404.63 357.371 404.918 357.646 405.11C357.925 405.302 358.288 405.398 358.737 405.398C359.247 405.398 359.653 405.289 359.953 405.073C360.256 404.853 360.408 404.59 360.408 404.284C360.408 404.036 360.321 403.829 360.148 403.662C359.975 403.492 359.709 403.365 359.35 403.281L358.161 403.003C357.509 402.848 357.029 402.608 356.723 402.283C356.419 401.955 356.268 401.545 356.268 401.053C356.268 400.651 356.381 400.295 356.607 399.986C356.836 399.676 357.147 399.433 357.539 399.257C357.936 399.081 358.384 398.993 358.885 398.993C359.591 398.993 360.145 399.147 360.547 399.457C360.952 399.766 361.24 400.175 361.41 400.682ZM366.29 399.085V400.014H362.595V399.085H366.29ZM363.672 397.377H364.767V404.172C364.767 404.482 364.812 404.714 364.902 404.868C364.995 405.02 365.112 405.122 365.255 405.175C365.4 405.224 365.553 405.249 365.714 405.249C365.835 405.249 365.934 405.243 366.011 405.23C366.088 405.215 366.15 405.203 366.197 405.193L366.42 406.177C366.345 406.205 366.242 406.233 366.109 406.261C365.975 406.292 365.807 406.307 365.603 406.307C365.293 406.307 364.99 406.241 364.693 406.108C364.399 405.975 364.155 405.772 363.96 405.5C363.768 405.227 363.672 404.884 363.672 404.469V397.377ZM368.736 406.289C368.507 406.289 368.31 406.207 368.146 406.043C367.982 405.879 367.9 405.682 367.9 405.453C367.9 405.224 367.982 405.028 368.146 404.864C368.31 404.7 368.507 404.618 368.736 404.618C368.965 404.618 369.161 404.7 369.325 404.864C369.489 405.028 369.571 405.224 369.571 405.453C369.571 405.605 369.532 405.744 369.455 405.871C369.381 405.998 369.28 406.1 369.153 406.177C369.029 406.252 368.89 406.289 368.736 406.289Z" fill="black"/>
<path d="M130.361 182.933V148.404H309.854V225.124" stroke="black" stroke-width="2.1628" stroke-miterlimit="10" stroke-linecap="round" stroke-linejoin="round"/>
<path d="M246.589 123.866V167.096H365.617V186.764" stroke="black" stroke-width="2.1628" stroke-miterlimit="10" stroke-linecap="round" stroke-linejoin="round"/>
<path d="M134.644 187.216C134.644 189.582 132.726 191.499 130.361 191.499C127.995 191.499 126.078 189.581 126.078 187.216C126.078 184.851 127.996 182.933 130.361 182.933C132.727 182.933 134.644 184.85 134.644 187.216Z" stroke="black" stroke-width="2.1628" stroke-miterlimit="10" stroke-linecap="round" stroke-linejoin="round"/>
<path d="M246.589 123.866C248.954 123.866 250.872 121.948 250.872 119.583C250.872 117.217 248.954 115.3 246.589 115.3C244.224 115.3 242.306 117.217 242.306 119.583C242.306 121.948 244.224 123.866 246.589 123.866Z" stroke="black" stroke-width="2.1628" stroke-miterlimit="10" stroke-linecap="round" stroke-linejoin="round"/>
<path d="M369.9 191.499C369.9 193.864 367.982 195.782 365.617 195.782C363.251 195.782 361.334 193.864 361.334 191.499C361.334 189.133 363.252 187.216 365.617 187.216C367.982 187.216 369.9 189.134 369.9 191.499Z" stroke="black" stroke-width="2.1628" stroke-miterlimit="10" stroke-linecap="round" stroke-linejoin="round"/>
<path d="M314.137 230.118C314.137 232.483 312.219 234.401 309.854 234.401C307.489 234.401 305.571 232.483 305.571 230.118C305.571 227.752 307.489 225.835 309.854 225.835C312.219 225.835 314.137 227.753 314.137 230.118Z" stroke="black" stroke-width="2.1628" stroke-miterlimit="10" stroke-linecap="round" stroke-linejoin="round"/>
<path d="M102.448 315.899L92.314 326.033" stroke="black" stroke-width="2.1628" stroke-miterlimit="10" stroke-linecap="round" stroke-linejoin="round"/>
<path d="M92.314 315.899L102.448 326.033" stroke="black" stroke-width="2.1628" stroke-miterlimit="10" stroke-linecap="round" stroke-linejoin="round"/>
<path d="M107.515 168.735L97.381 178.87" stroke="black" stroke-width="2.1628" stroke-miterlimit="10" stroke-linecap="round" stroke-linejoin="round"/>
<path d="M97.381 168.735L107.515 178.87" stroke="black" stroke-width="2.1628" stroke-miterlimit="10" stroke-linecap="round" stroke-linejoin="round"/>
<path d="M436.221 283.611L426.086 293.746" stroke="black" stroke-width="2.1628" stroke-miterlimit="10" stroke-linecap="round" stroke-linejoin="round"/>
<path d="M426.086 283.611L436.221 293.746" stroke="black" stroke-width="2.1628" stroke-miterlimit="10" stroke-linecap="round" stroke-linejoin="round"/>
<path d="M148.623 110.896C145.391 110.896 142.433 112.059 140.136 113.985C137.79 106.923 131.142 101.825 123.293 101.825C114.506 101.825 107.228 108.214 105.806 116.596C104.88 116.331 103.905 116.18 102.893 116.18C97.05 116.18 92.314 120.917 92.314 126.759C92.314 132.134 96.326 136.562 101.516 137.239V137.339H148.623C155.925 137.339 161.845 131.42 161.845 124.117C161.845 116.816 155.925 110.896 148.623 110.896Z" stroke="black" stroke-width="2.2614" stroke-miterlimit="10" stroke-linecap="round" stroke-linejoin="round"/>
<path d="M393.758 178.152C396.106 178.152 398.255 178.997 399.924 180.396C401.628 175.266 406.458 171.562 412.16 171.562C418.544 171.562 423.831 176.204 424.864 182.293C425.537 182.1 426.245 181.991 426.98 181.991C431.225 181.991 434.666 185.432 434.666 189.677C434.666 193.582 431.752 196.799 427.981 197.29V197.362H393.759C388.454 197.362 384.154 193.061 384.154 187.757C384.154 182.453 388.453 178.152 393.758 178.152Z" stroke="black" stroke-width="2.1628" stroke-miterlimit="10" stroke-linecap="round" stroke-linejoin="round"/>
<path d="M440.942 359.848C438.973 359.848 437.171 360.557 435.771 361.73C434.342 357.428 430.291 354.321 425.509 354.321C420.155 354.321 415.721 358.214 414.855 363.321C414.291 363.16 413.697 363.068 413.08 363.068C409.52 363.068 406.634 365.954 406.634 369.514C406.634 372.789 409.078 375.487 412.241 375.899V375.96H440.941C445.39 375.96 448.997 372.354 448.997 367.905C448.997 363.455 445.391 359.848 440.942 359.848Z" stroke="black" stroke-width="2.1628" stroke-miterlimit="10" stroke-linecap="round" stroke-linejoin="round"/>
<path d="M51.406 342.849C53.754 342.849 55.903 343.694 57.572 345.093C59.276 339.963 64.106 336.259 69.808 336.259C76.192 336.259 81.479 340.901 82.512 346.99C83.185 346.797 83.893 346.688 84.628 346.688C88.873 346.688 92.314 350.129 92.314 354.374C92.314 358.279 89.4 361.496 85.629 361.987V362.059H51.406C46.101 362.059 41.801 357.759 41.801 352.454C41.801 347.149 46.101 342.849 51.406 342.849Z" stroke="black" stroke-width="2.1628" stroke-miterlimit="10" stroke-linecap="round" stroke-linejoin="round"/>
<path d="M161.845 104.553C161.845 104.553 222.285 55.2756 304.405 77.9776C390.668 101.825 407.936 163.335 407.936 163.335" stroke="black" stroke-width="2.1628" stroke-miterlimit="10" stroke-linecap="round" stroke-linejoin="round" stroke-dasharray="3.27 7.62"/>
<path d="M70.586 247.775C47.155 251.409 35.376 301.138 61.732 320.879" stroke="black" stroke-width="2.0166" stroke-miterlimit="10" stroke-linecap="round" stroke-linejoin="round" stroke-dasharray="3.05 7.11"/>
<path d="M365.617 391.261C365.617 391.261 405.755 408.807 423.349 384.328" stroke="black" stroke-width="2.1628" stroke-miterlimit="10" stroke-linecap="round" stroke-linejoin="round" stroke-dasharray="3.27 7.62"/>
<path d="M174.666 191.499V166.153" stroke="black" stroke-width="2.1628" stroke-miterlimit="10" stroke-linecap="round" stroke-linejoin="round"/>
<path d="M168.548 191.499V178.87" stroke="black" stroke-width="2.1628" stroke-miterlimit="10" stroke-linecap="round" stroke-linejoin="round"/>
<path d="M267.823 197.363V178.826" stroke="black" stroke-width="2.1628" stroke-miterlimit="10" stroke-linecap="round" stroke-linejoin="round"/>
<path d="M260.873 195.782V188.094" stroke="black" stroke-width="2.1628" stroke-miterlimit="10" stroke-linecap="round" stroke-linejoin="round"/>
<path d="M254.707 195.782V182.933" stroke="black" stroke-width="2.1628" stroke-miterlimit="10" stroke-linecap="round" stroke-linejoin="round"/>
<path d="M180.547 191.499V178.826" stroke="black" stroke-width="2.1628" stroke-miterlimit="10" stroke-linecap="round" stroke-linejoin="round"/>
<path d="M348.548 195.027V189.357" stroke="black" stroke-width="2.1628" stroke-miterlimit="10" stroke-linecap="round" stroke-linejoin="round"/>
<path d="M342.43 195.027V181.217" stroke="black" stroke-width="2.1628" stroke-miterlimit="10" stroke-linecap="round" stroke-linejoin="round"/>
<path d="M354.429 195.027V185.163" stroke="black" stroke-width="2.1628" stroke-miterlimit="10" stroke-linecap="round" stroke-linejoin="round"/>
</svg>
